# xmcd
#
# Track frame offsets:
#	150
#	13636
#	23821
#	35368
#	46657
#	57619
#	67756
#	78658
#	89701
#	101122
#	112574
#	123555
#
# Disc length: 1789 seconds
#
# Revision: 1
# Processed by: cddbd v1.5.2PL0 Copyright (c) Steve Scherf et al.
# Submitted via: audiograbber 1.83.01
#
DISCID=9406fb0c
DTITLE=George Jones - My Favorites Of Hank Williams
DYEAR=1962
DGENRE=Country
TTITLE0=Wedding Bells
TTITLE1=I Heard You Crying In Your Sleep
TTITLE2=I Just Don't Like This Kind Of Living
TTITLE3=You Win Again
TTITLE4=I Could Never Be Ashamed Of You
TTITLE5=You're Gonna Change
TTITLE6=Lonesome Whistle
TTITLE7=A House Without Love
TTITLE8=Your Cheating Heart
TTITLE9=They'll Never Take Her Love From Me
TTITLE10=Mansion On The Hill
TTITLE11=Take These Chains From My Heart
EXTD=
EXTT0=
EXTT1=
EXTT2=
EXTT3=
EXTT4=
EXTT5=
EXTT6=
EXTT7=
EXTT8=
EXTT9=
EXTT10=
EXTT11=
PLAYORDER=
